<svg xmlns="http://www.w3.org/2000/svg" width="128" height="128" viewBox="0 0 128 128">
  <defs>
    <linearGradient id="bg" x1="0%" y1="0%" x2="100%" y2="100%">
      <stop offset="0%" style="stop-color:#f97316"/>
      <stop offset="100%" style="stop-color:#dc2626"/>
    </linearGradient>
  </defs>
  <!-- Background rounded square -->
  <rect width="128" height="128" rx="28" fill="url(#bg)"/>
  <!-- Shield -->
  <path d="M64 18 L96 30 L96 62 C96 82 80 96 64 110 C48 96 32 82 32 62 L32 30 Z"
        fill="rgba(0,0,0,0.25)" stroke="rgba(255,255,255,0.3)" stroke-width="2"/>
  <path d="M64 26 L88 36 L88 62 C88 78 76 90 64 102 C52 90 40 78 40 62 L40 36 Z"
        fill="none" stroke="white" stroke-width="2.5" stroke-linejoin="round"/>
  <!-- Lightning bolt -->
  <path d="M70 44 L58 66 L66 66 L58 88 L76 62 L67 62 Z"
        fill="white" stroke="none"/>
</svg>
